# xmcd
#
# Track frame offsets: 
#        150
#        12487
#        24125
#        35525
#        48770
#        60590
#        75005
#        90587
#        106710
#        119147
#        137087
#        155787
#        165780
#        176765
#        188612
#        207702
#        217485
#        228072
#        243827
#        256825
#
# Disc length: 3623 seconds
#
# Revision: 1
# Processed by: cddbd v1.5.2PL0 Copyright (c) Steve Scherf et al.
# Submitted via: ExactAudioCopy v1.0b3
#
DISCID=fd0e2514
DTITLE=Various Artist - Early Morning
DYEAR=1988
DGENRE=Instrumental
TTITLE0=Caravelli Et Son Grand Orchestre - Toccata
TTITLE1=Fantastic Sounds Orchestra - Ballade Pour Adeline
TTITLE2=Ensemble Petit and Screenland Orchestra - The Morning After
TTITLE3=Percy Faith and His Orchestra - Beyond The Reef
TTITLE4=Caravelli Et Son Grand Orchestre - Love Is Blue
TTITLE5=Percy Faith and His Orchestra - Theme From "Summer of '42"
TTITLE6=Caravelli Et Son Grand Orchestre - Piano Concerto
TTITLE7=Percy Faith and His Orchestra - Stranger In Paradise
TTITLE8=Percy Faith and His Orchestra - Killing Me Softly With Her Song
TTITLE9=Percy Faith and His Orchestra - Feeligs
TTITLE10=Caravelli Et Son Grand Orchestre - Penelope
TTITLE11=Caravelli Et Son Grand Orchestre - J'attendrai
TTITLE12=Percy Faith and His Orchestra - The Theme From "A Summer Place"
TTITLE13=Percy Faith and His Orchestra - L'eau Vive
TTITLE14=Percy Faith and His Orchestra - The Sound Of Music
TTITLE15=Ensemble Petit and Screenland Orchestra - East Of Eden
TTITLE16=Caravelli Et Son Grand Orchestre - Plein Soleil
TTITLE17=Caravelli Et Son Grand Orchestre - Music Box Dancer
TTITLE18=Caravelli Et Son Grand Orchestre - Prelude A L'amour
TTITLE19=Percy Faith and His Orchestra - Bouquet
EXTD=
EXTT0=
EXTT1=
EXTT2=
EXTT3=
EXTT4=
EXTT5=
EXTT6=
EXTT7=
EXTT8=
EXTT9=
EXTT10=
EXTT11=
EXTT12=
EXTT13=
EXTT14=
EXTT15=
EXTT16=
EXTT17=
EXTT18=
EXTT19=
PLAYORDER=
